<?xml version="1.0" ?>

<!DOCTYPE svg  PUBLIC '-//W3C//DTD SVG 1.1//EN'  'http://www.w3.org/Graphics/SVG/1.1/DTD/svg11.dtd'>

<!-- Uploaded to: SVG Repo, www.svgrepo.com, Generator: SVG Repo Mixer Tools -->
<svg fill="#066aff" width="800px" height="800px" viewBox="0 0 512 512" enable-background="new 0 0 512 512" id="Management" version="1.1" xml:space="preserve" xmlns="http://www.w3.org/2000/svg" xmlns:xlink="http://www.w3.org/1999/xlink">

<g>

<path d="M182.922,264.709c-39.745,0-72.08,32.336-72.08,72.08c0,39.745,32.335,72.079,72.08,72.079   c39.744,0,72.08-32.334,72.08-72.079c0-14.443-4.259-28.381-12.314-40.306c-2.095-3.099-6.305-3.915-9.406-1.821   c-3.1,2.096-3.916,6.306-1.821,9.406c6.538,9.677,9.993,20.99,9.993,32.721c0,32.274-26.257,58.531-58.531,58.531   c-32.275,0-58.531-26.257-58.531-58.531s26.256-58.531,58.531-58.531c3.741,0,6.774-3.033,6.774-6.773   C189.696,267.742,186.663,264.709,182.922,264.709z"/>

<path d="M308.15,401.063l-17.715-17.717c-1.592-1.592-2.026-4.051-1.151-6.156c0.018-0.039,0.101-0.234,0.116-0.273   c0.914-2.206,2.956-3.632,5.203-3.632h25.054c3.74,0,6.774-3.033,6.774-6.774v-67.184c0-3.741-3.034-6.774-6.774-6.774h-25.054   c-2.247,0-4.289-1.426-5.273-3.798c-0.921-2.213-0.486-4.672,1.105-6.266l17.715-17.715c2.646-2.645,2.646-6.934,0-9.58   l-47.505-47.505c-2.646-2.645-6.935-2.645-9.581,0c-2.646,2.646-2.646,6.935,0,9.581l42.717,42.715l-12.925,12.924   c-5.487,5.486-7.071,13.748-3.973,21.195c3.017,7.287,9.972,11.997,17.72,11.997h18.279v53.635h-18.279   c-7.748,0-14.703,4.71-17.671,11.88c-0.015,0.035-0.097,0.228-0.111,0.264c-3.038,7.299-1.454,15.563,4.035,21.047l12.925,12.926   l-37.926,37.926l-12.925-12.926c-5.488-5.488-13.751-7.071-21.194-3.973c-7.288,3.018-11.998,9.975-11.998,17.721v18.279h-53.634   V444.6c0-7.747-4.709-14.703-12.144-17.781c-7.299-3.036-15.56-1.453-21.048,4.033l-12.925,12.926l-37.925-37.926l12.925-12.926   c5.486-5.488,7.07-13.75,3.973-21.193c-3.019-7.287-9.975-11.997-17.72-11.997H52.962v-53.635h18.279   c7.746,0,14.702-4.71,17.781-12.144c3.035-7.299,1.452-15.561-4.034-21.049l-12.925-12.924l37.925-37.925l12.925,12.924   c5.486,5.488,13.747,7.072,21.194,3.974c7.288-3.019,11.997-9.975,11.997-17.72v-18.279h53.634v18.279   c0,7.747,4.71,14.703,11.998,17.72c2.442,1.012,4.884,2.138,7.255,3.346c3.33,1.697,7.411,0.373,9.111-2.961   c1.698-3.333,0.373-7.412-2.961-9.111c-2.686-1.369-5.452-2.644-8.222-3.792c-2.207-0.914-3.633-2.956-3.633-5.203v-25.054   c0-3.742-3.033-6.774-6.774-6.774H149.33c-3.741,0-6.774,3.032-6.774,6.774v25.054c0,2.247-1.426,4.289-3.799,5.272   c-2.211,0.922-4.671,0.488-6.263-1.105l-17.715-17.715c-2.646-2.645-6.936-2.645-9.581,0l-47.506,47.505   c-2.646,2.646-2.646,6.936,0,9.582l17.715,17.713c1.593,1.594,2.026,4.053,1.128,6.213c-0.009,0.021-0.082,0.197-0.092,0.218   c-0.914,2.207-2.956,3.633-5.202,3.633H46.188c-3.741,0-6.774,3.033-6.774,6.774v67.184c0,3.741,3.033,6.774,6.774,6.774h25.054   c2.246,0,4.288,1.426,5.272,3.798c0.92,2.213,0.486,4.672-1.106,6.264l-17.715,17.715c-2.646,2.646-2.646,6.936,0,9.582   l47.506,47.505c2.646,2.645,6.935,2.645,9.581,0l17.715-17.716c1.592-1.594,4.051-2.023,6.211-1.127   c0.021,0.009,0.197,0.082,0.218,0.092c2.207,0.914,3.633,2.956,3.633,5.203v25.053c0,3.742,3.033,6.774,6.774,6.774h67.183   c3.741,0,6.774-3.032,6.774-6.774V444.6c0-2.248,1.426-4.29,3.557-5.174c0.029-0.012,0.215-0.088,0.243-0.1   c2.212-0.921,4.672-0.485,6.263,1.105l17.715,17.715c1.271,1.271,2.994,1.984,4.791,1.984c1.796,0,3.519-0.713,4.79-1.983   l47.505-47.505C310.796,407.996,310.796,403.707,308.15,401.063z"/>

<path d="M377.926,312.506c0,24.05,19.566,43.617,43.618,43.617s43.618-19.567,43.618-43.617c0-24.051-19.566-43.619-43.618-43.619   S377.926,288.455,377.926,312.506z M451.613,312.506c0,16.58-13.489,30.069-30.069,30.069s-30.07-13.489-30.07-30.069   c0-16.582,13.49-30.07,30.07-30.07S451.613,295.924,451.613,312.506z"/>

<path d="M465.813,443.785c3.74,0,6.774-3.032,6.774-6.773v-16.967c0-28.145-22.897-51.042-51.043-51.042   s-51.043,22.897-51.043,51.042v43.62h-82.472c-3.74,0-6.774,3.032-6.774,6.774c0,3.741,3.034,6.773,6.774,6.773h88.918   c0.111,0.006,0.216,0.033,0.328,0.033h88.537c3.74,0,6.774-3.033,6.774-6.773c0-3.742-3.034-6.775-6.774-6.775H384.05v-43.652   c0-20.674,16.82-37.494,37.494-37.494s37.494,16.82,37.494,37.494v16.967C459.038,440.753,462.072,443.785,465.813,443.785z"/>

<path d="M93.609,185.172c3.741,0,6.774-3.033,6.774-6.774V64.49h44.934c3.741,0,6.774-3.032,6.774-6.774   c0-3.741-3.033-6.774-6.774-6.774H93.609c-3.741,0-6.774,3.033-6.774,6.774v120.682C86.835,182.14,89.868,185.172,93.609,185.172z"/>

<path d="M375.443,64.49h45.933v163.937c0,3.742,3.033,6.774,6.774,6.774c3.74,0,6.773-3.033,6.773-6.774V57.716   c0-3.741-3.033-6.774-6.773-6.774h-52.707c-3.74,0-6.773,3.033-6.773,6.774C368.67,61.458,371.703,64.49,375.443,64.49z"/>

<path d="M185.378,93.665h151.005c3.74,0,6.773-3.033,6.773-6.774V41.528c0-3.741-3.033-6.774-6.773-6.774H185.378   c-3.741,0-6.774,3.033-6.774,6.774v45.363C178.604,90.632,181.637,93.665,185.378,93.665z M192.152,48.302h137.456v31.814H192.152   V48.302z"/>

<path d="M182.922,292.964c-3.742,0-6.774,3.033-6.774,6.774v37.051c0,3.741,3.032,6.773,6.774,6.773h24.714   c3.741,0,6.774-3.032,6.774-6.773c0-3.742-3.033-6.775-6.774-6.775h-17.939v-30.275   C189.696,295.997,186.663,292.964,182.922,292.964z"/>

<path d="M168.652,146.977h152.94c3.74,0,6.773-3.032,6.773-6.774c0-3.741-3.033-6.774-6.773-6.774h-152.94   c-3.742,0-6.774,3.033-6.774,6.774C161.878,143.944,164.91,146.977,168.652,146.977z"/>

<path d="M321.593,188.101h-31.064c-3.74,0-6.774,3.033-6.774,6.774c0,3.741,3.034,6.774,6.774,6.774h31.064   c3.74,0,6.773-3.033,6.773-6.774C328.366,191.134,325.333,188.101,321.593,188.101z"/>

<path d="M362.332,154.588c1.323,1.322,3.057,1.983,4.789,1.983c1.734,0,3.469-0.662,4.79-1.984l19.19-19.191   c2.646-2.645,2.646-6.934,0-9.58c-2.646-2.644-6.937-2.645-9.579,0.001l-14.401,14.401l-5.706-5.705   c-2.646-2.645-6.937-2.646-9.579,0.001c-2.646,2.645-2.646,6.935,0,9.58L362.332,154.588z"/>

<path d="M362.332,209.261c1.323,1.322,3.057,1.984,4.789,1.984c1.734,0,3.469-0.662,4.79-1.985l19.19-19.191   c2.646-2.645,2.646-6.934,0-9.58c-2.646-2.644-6.937-2.645-9.579,0.001l-14.401,14.401l-5.706-5.705   c-2.646-2.645-6.937-2.646-9.579,0c-2.646,2.645-2.646,6.935,0,9.58L362.332,209.261z"/>

</g>

</svg>